<svg width="129" height="143" viewBox="0 0 129 143" fill="none" xmlns="http://www.w3.org/2000/svg">
<g clip-path="url(#clip0_208_683)">
<path d="M128.381 100.823C127.751 100.126 126.776 99.8685 125.891 100.169L116.739 103.255C112.473 104.694 108.137 105.904 103.767 106.935C96.2358 101.475 82.7909 98 68.8198 98C55.1696 98 42.7371 101.353 35.7657 106.827C31.5508 105.818 27.3759 104.639 23.2601 103.252L14.1081 100.167C13.2278 99.8709 12.2602 100.121 11.6301 100.809C10.9999 101.496 10.8253 102.494 11.184 103.357L18.1366 120.057C18.1531 120.096 18.1696 120.131 18.1861 120.167L28.4261 141.649C28.8226 142.475 29.6486 143 30.5548 143H110.12C111.057 143 111.906 142.439 112.281 141.571L128.801 103.388C129.177 102.525 129.011 101.52 128.381 100.823ZM68.8198 102.773C79.3784 102.773 89.7907 104.93 96.873 108.378C78.8922 111.71 60.3427 111.667 42.3808 108.242C48.8707 104.842 58.542 102.773 68.8198 102.773ZM108.576 138.227H32.0369L22.4648 118.151L17.556 106.362L21.7662 107.782C52.8709 118.265 87.1286 118.265 118.233 107.782L122.349 106.393L108.576 138.227Z" fill="black"/>
<path d="M124 60C124 49.5239 115.7 41 105.5 41C95.2996 41 87 49.5239 87 60C87 70.4761 95.2996 79 105.5 79C115.7 79 124 70.4761 124 60ZM105.5 74.25C97.8479 74.25 91.625 67.8589 91.625 60C91.625 52.1411 97.8479 45.75 105.5 45.75C113.152 45.75 119.375 52.1411 119.375 60C119.375 67.8589 113.152 74.25 105.5 74.25Z" fill="black"/>
<path d="M110.5 53H100.5C99.12 53 98 54.0453 98 55.3333V64.6667C98 65.9547 99.12 67 100.5 67H110.5C111.88 67 113 65.9547 113 64.6667V55.3333C113 54.0453 111.88 53 110.5 53ZM108 62.3333H103V57.6667H108V62.3333Z" fill="black"/>
<path d="M75 0C64.5239 0 56 8.52388 56 19C56 29.4761 64.5239 38 75 38C85.4761 38 94 29.4761 94 19C94 8.52388 85.4761 0 75 0ZM75 33.25C67.1411 33.25 60.75 26.8589 60.75 19C60.75 11.1411 67.1411 4.75 75 4.75C82.8589 4.75 89.25 11.1411 89.25 19C89.25 26.8589 82.8589 33.25 75 33.25Z" fill="black"/>
<path d="M79.6667 12H70.3333C69.0453 12 68 13.0453 68 14.3333V23.6667C68 24.9547 69.0453 26 70.3333 26H79.6667C80.9547 26 82 24.9547 82 23.6667V14.3333C82 13.0453 80.9547 12 79.6667 12ZM77.3333 21.3333H72.6667V16.6667H77.3333V21.3333Z" fill="black"/>
<path d="M10 0H5V5H10V0Z" fill="black"/>
<path d="M14 5H10V10H14V5Z" fill="black"/>
<path d="M10 10H5V15H10V10Z" fill="black"/>
<path d="M5 5H0V10H5V5Z" fill="black"/>
<path d="M19 67C19 77.4761 27.2996 86 37.5 86C47.7004 86 56 77.4761 56 67C56 56.5239 47.7004 48 37.5 48C27.2996 48 19 56.5239 19 67ZM51.375 67C51.375 74.8589 45.1521 81.25 37.5 81.25C29.8479 81.25 23.625 74.8589 23.625 67C23.625 59.1411 29.8479 52.75 37.5 52.75C45.1521 52.75 51.375 59.1411 51.375 67Z" fill="black"/>
<path d="M31 61.5V71.5C31 72.88 32.0453 74 33.3333 74H42.6667C43.9547 74 45 72.88 45 71.5V61.5C45 60.12 43.9547 59 42.6667 59H33.3333C32.0453 59 31 60.12 31 61.5ZM35.6667 64H40.3333V69H35.6667V64Z" fill="black"/>
<path d="M80 81H75V86H80V81Z" fill="black"/>
<path d="M84 86H80V91H84V86Z" fill="black"/>
<path d="M80 91H75V96H80V91Z" fill="black"/>
<path d="M75 86H71V91H75V86Z" fill="black"/>
<path d="M21 41H16V46H21V41Z" fill="black"/>
<path d="M42 17H37V21H42V17Z" fill="black"/>
<path d="M118 91H113V96H118V91Z" fill="black"/>
<path d="M58 86H54V91H58V86Z" fill="black"/>
</g>
<defs>
<clipPath id="clip0_208_683">
<rect width="129" height="143" fill="white"/>
</clipPath>
</defs>
</svg>
