<svg width="163" height="152" viewBox="0 0 163 152" fill="none" xmlns="http://www.w3.org/2000/svg">
<path d="M149.119 95.6256V103.665H146.633H138.147V95.6256H129.398V64.6021C153.996 62.0925 161.57 50.0534 161.57 50.0534L156.995 42.5529C156.995 42.5529 155.279 46.4318 144.985 45.399C134.691 44.3637 131.256 42.4137 125.824 36.4639C120.678 30.5141 119.6 24.2068 120.678 20.8955C122.108 16.499 121.89 11.411 120.962 8.47823C119.863 5.00143 117.714 1.95282 114.657 0.000318184L107.418 3.14826C109.086 5.13514 110.096 8.02075 110.096 11.0665C110.096 15.9231 105.744 19.8599 100.372 19.8599H86.0758H77.7844H62.6261C57.2573 19.8599 52.9053 15.9231 52.9053 11.0665C52.9053 8.02075 53.9145 5.13514 55.583 3.14826L48.3429 0C45.2863 1.95282 43.1339 5.00111 42.0381 8.47791C41.1104 11.411 40.892 16.4987 42.3217 20.8952C43.3991 24.2065 42.3217 30.5138 37.1761 36.4636C31.7414 42.4137 28.3092 44.3634 18.0125 45.3987C7.72117 46.4314 6.00521 42.5526 6.00521 42.5526L1.42943 50.0534C1.42943 50.0534 9.00352 62.0925 33.6016 64.6021V95.6256H24.8505V103.665H16.3672H13.8811V95.6256H0V103.665V151.137H60.9907V135.929C60.9907 124.602 70.1734 115.422 81.4997 115.422C92.8266 115.422 102.006 124.602 102.006 135.929V151.137H163V103.665V95.6256H149.119ZM123.393 103.665H113.294V95.6256H99.4099V103.665H88.4406V95.6256H74.5569V103.665H63.5875V95.6256H49.7064V103.665H39.6071V65.0042C40.6739 65.0411 41.7672 65.0593 42.8945 65.0593H120.106C121.231 65.0593 122.324 65.0411 123.393 65.0042V103.665Z" fill="black"/>
</svg>
