<svg width="30" height="30" viewBox="0 0 30 30" fill="none" xmlns="http://www.w3.org/2000/svg">
<path d="M18.8732 15.5709L18.4422 14.8674C18.1632 15.0362 18.0101 15.352 18.051 15.674C18.0918 15.9958 18.319 16.264 18.6315 16.3587L18.8732 15.5709ZM11.1267 15.5709L11.3685 16.3587C11.6809 16.264 11.9082 15.9958 11.9491 15.674C11.9899 15.352 11.8367 15.0362 11.5577 14.8674L11.1267 15.5709ZM21.6307 9.23529C21.6307 11.6202 20.3558 13.71 18.4422 14.8674L19.3042 16.2743C21.6912 14.8305 23.2884 12.2186 23.2884 9.23529H21.6307ZM15.0001 2.64706C18.662 2.64706 21.6307 5.59671 21.6307 9.23529H23.2884C23.2884 4.68707 19.5775 1 15.0001 1V2.64706ZM8.3693 9.23529C8.3693 5.59671 11.338 2.64706 15.0001 2.64706V1C10.4225 1 6.71163 4.68707 6.71163 9.23529H8.3693ZM11.5577 14.8674C9.64418 13.71 8.3693 11.6202 8.3693 9.23529H6.71163C6.71163 12.2186 8.30873 14.8305 10.6958 16.2743L11.5577 14.8674ZM10.885 14.7831C5.65216 16.3685 1.71142 20.8971 1.01832 26.4309L2.66329 26.6343C3.27431 21.7559 6.75116 17.7575 11.3685 16.3587L10.885 14.7831ZM1.01832 26.4309C0.835128 27.8935 2.05455 29 3.39628 29V27.3529C2.90702 27.3529 2.62036 26.9772 2.66329 26.6343L1.01832 26.4309ZM3.39628 29H26.6038V27.3529H3.39628V29ZM26.6038 29C27.9455 29 29.1649 27.8935 28.9817 26.4309L27.3366 26.6343C27.3795 26.9772 27.0929 27.3529 26.6038 27.3529V29ZM28.9817 26.4309C28.2886 20.8971 24.3478 16.3685 19.1149 14.7831L18.6315 16.3587C23.2488 17.7575 26.7256 21.7559 27.3366 26.6343L28.9817 26.4309Z" fill="black"/>
<path d="M18.4422 14.8674L18.8732 15.5709L18.6315 16.3587M18.4422 14.8674C18.1632 15.0362 18.0101 15.352 18.051 15.674C18.0918 15.9958 18.319 16.264 18.6315 16.3587M18.4422 14.8674C20.3558 13.71 21.6307 11.6202 21.6307 9.23529M18.4422 14.8674L19.3042 16.2743C21.6912 14.8305 23.2884 12.2186 23.2884 9.23529M18.6315 16.3587L19.1149 14.7831C24.3478 16.3685 28.2886 20.8971 28.9817 26.4309M18.6315 16.3587C23.2488 17.7575 26.7256 21.7559 27.3366 26.6343M11.3685 16.3587L11.1267 15.5709L11.5577 14.8674M11.3685 16.3587C11.6809 16.264 11.9082 15.9958 11.9491 15.674C11.9899 15.352 11.8367 15.0362 11.5577 14.8674M11.3685 16.3587C6.75116 17.7575 3.27431 21.7559 2.66329 26.6343M11.3685 16.3587L10.885 14.7831C5.65216 16.3685 1.71142 20.8971 1.01832 26.4309M11.5577 14.8674C9.64418 13.71 8.3693 11.6202 8.3693 9.23529M11.5577 14.8674L10.6958 16.2743C8.30873 14.8305 6.71163 12.2186 6.71163 9.23529M1.84081 26.5327L1.01832 26.4309M1.01832 26.4309L2.66329 26.6343M1.01832 26.4309C0.835128 27.8935 2.05455 29 3.39628 29M28.1591 26.5327L28.9817 26.4309M28.9817 26.4309C29.1649 27.8935 27.9455 29 26.6038 29M28.9817 26.4309L27.3366 26.6343M21.6307 9.23529H23.2884M21.6307 9.23529C21.6307 5.59671 18.662 2.64706 15.0001 2.64706M23.2884 9.23529C23.2884 4.68707 19.5775 1 15.0001 1M15.0001 2.64706V1M15.0001 2.64706C11.338 2.64706 8.3693 5.59671 8.3693 9.23529M15.0001 1C10.4225 1 6.71163 4.68707 6.71163 9.23529M8.3693 9.23529H6.71163M2.66329 26.6343C2.62036 26.9772 2.90702 27.3529 3.39628 27.3529M3.39628 29V27.3529M3.39628 29H26.6038M3.39628 27.3529H26.6038M26.6038 29V27.3529M26.6038 27.3529C27.0929 27.3529 27.3795 26.9772 27.3366 26.6343" stroke="black" stroke-width="0.5"/>
</svg>
