<svg width="43" height="43" viewBox="0 0 43 43" fill="none" xmlns="http://www.w3.org/2000/svg">
<path d="M26.9553 22.1165L26.3053 21.0488C25.8845 21.305 25.6535 21.7842 25.7153 22.273C25.7768 22.7615 26.1195 23.1685 26.5908 23.3122L26.9553 22.1165ZM15.2725 22.1165L15.6371 23.3122C16.1083 23.1685 16.451 22.7615 16.5128 22.273C16.5743 21.7842 16.3433 21.305 15.9225 21.0488L15.2725 22.1165ZM31.114 12.5C31.114 16.12 29.1913 19.292 26.3053 21.0488L27.6053 23.1842C31.2053 20.9927 33.614 17.0283 33.614 12.5H31.114ZM21.114 2.5C26.6368 2.5 31.114 6.97715 31.114 12.5H33.614C33.614 5.59645 28.0175 0 21.114 0V2.5ZM11.1139 12.5C11.1139 6.97715 15.5911 2.5 21.114 2.5V0C14.2104 0 8.61393 5.59645 8.61393 12.5H11.1139ZM15.9225 21.0488C13.0366 19.292 11.1139 16.12 11.1139 12.5H8.61393C8.61393 17.0283 11.0226 20.9927 14.6226 23.1842L15.9225 21.0488ZM14.908 20.9208C7.0161 23.3273 1.07293 30.201 0.0276258 38.6005L2.50848 38.9092C3.42998 31.5045 8.67355 25.4355 15.6371 23.3122L14.908 20.9208ZM0.0276258 38.6005C-0.248649 40.8205 1.5904 42.5 3.61393 42.5V40C2.87605 40 2.44373 39.4297 2.50848 38.9092L0.0276258 38.6005ZM3.61393 42.5H38.614V40H3.61393V42.5ZM38.614 42.5C40.6375 42.5 42.4765 40.8205 42.2003 38.6005L39.7193 38.9092C39.784 39.4297 39.3518 40 38.614 40V42.5ZM42.2003 38.6005C41.155 30.201 35.2118 23.3273 27.3198 20.9208L26.5908 23.3122C33.5543 25.4355 38.7978 31.5045 39.7193 38.9092L42.2003 38.6005Z" fill="black"/>
</svg>
