<svg width="33" height="33" viewBox="0 0 33 33" fill="none" xmlns="http://www.w3.org/2000/svg">
<path d="M19.6586 16.2422C19.143 16.0483 19.143 15.3079 19.111 14.7923C18.9821 12.9556 19.6266 10.1517 18.8532 8.95953C18.3056 8.25003 15.6625 8.315 14.0517 8.41194C13.6 8.47691 13.0524 8.57281 12.6657 8.76669C12.279 8.96056 11.8923 9.28231 11.8923 9.57209C11.8923 9.99078 12.8596 9.92684 13.2133 10.4744C13.6 11.055 13.6 12.3111 13.6 13.3423C13.6 14.5345 13.4061 16.1143 12.9235 16.1783C12.182 16.2102 11.7633 15.4688 11.3766 14.9212C10.6032 13.858 9.82976 12.5359 9.24916 11.2468C8.95938 10.5703 8.79747 9.82887 8.37879 9.53909C7.73426 9.08741 6.5741 9.05544 5.44591 9.08741C4.41466 9.11937 2.93173 8.99047 2.64194 9.60303C2.4161 10.2795 2.89976 10.9241 3.15757 11.4727C4.4786 14.3406 5.89657 16.8548 7.63732 19.239C9.24916 21.4624 10.763 23.2351 13.7279 24.1694C14.5663 24.4272 18.2396 25.1687 18.9811 24.1694C19.2389 23.7827 19.1749 22.9123 19.3039 22.2678C19.4328 21.6233 19.5936 20.9788 20.2062 20.9468C20.7218 20.9148 21.0116 21.3655 21.3344 21.6882C21.6891 22.043 21.9789 22.3328 22.2367 22.6556C22.8493 23.2681 23.4938 24.1055 24.2673 24.4283C25.3305 24.88 26.9743 24.7511 28.5212 24.6861C29.7783 24.6541 30.6806 24.3963 30.7775 23.6548C30.8425 23.0742 30.1969 22.2369 29.8102 21.7532C28.8429 20.5611 28.3923 20.2063 27.296 19.1101C26.8124 18.6265 26.1998 18.1108 26.1998 17.5313C26.1679 17.1765 26.4576 16.8548 26.7154 16.5C27.8436 14.8242 28.9718 13.6321 30.0031 11.8914C30.2929 11.3757 30.9704 10.1836 30.7126 9.60303C30.4228 8.9585 28.8109 9.15134 27.8117 9.15134C26.5226 9.15134 24.8468 9.05441 24.524 9.31222C23.9115 9.73091 23.6537 10.4084 23.3639 11.053C22.7194 12.5359 21.849 14.0498 20.9466 15.178C20.6238 15.5647 20.0123 16.3701 19.6576 16.2412L19.6586 16.2422Z" fill="black"/>
</svg>
