<svg width="27" height="19" viewBox="0 0 27 19" fill="none" xmlns="http://www.w3.org/2000/svg">
<path fill-rule="evenodd" clip-rule="evenodd" d="M10.7844 12.952V5.37605C13.4739 6.64158 15.5569 7.8641 18.0204 9.18215C15.9885 10.309 13.4739 11.5734 10.7844 12.952ZM25.7729 1.60818C25.3089 0.996949 24.5182 0.521162 23.6764 0.363644C21.2021 -0.106223 5.76583 -0.10756 3.29286 0.363644C2.6178 0.490193 2.01668 0.796081 1.5003 1.27133C-0.675489 3.2908 0.00629934 14.1205 0.530749 15.8748C0.751285 16.6341 1.03638 17.1817 1.39543 17.5412C1.85802 18.0164 2.49138 18.3437 3.21888 18.4904C5.25616 18.9118 15.7519 19.1474 23.6334 18.5537C24.3595 18.4272 25.0023 18.0894 25.5093 17.5939C27.521 15.5825 27.3839 4.14462 25.7729 1.60818Z" fill="black"/>
</svg>
