<svg width="123" height="44" viewBox="0 0 123 44" fill="none" xmlns="http://www.w3.org/2000/svg">
<g clip-path="url(#clip0_201_455)">
<path d="M101 3H22C11.5066 3 3 11.5066 3 22C3 32.4934 11.5066 41 22 41H101C111.493 41 120 32.4934 120 22C120 11.5066 111.493 3 101 3Z" fill="#99958F"/>
<path d="M101 1.5H22C10.6782 1.5 1.5 10.6782 1.5 22C1.5 33.3218 10.6782 42.5 22 42.5H101C112.322 42.5 121.5 33.3218 121.5 22C121.5 10.6782 112.322 1.5 101 1.5Z" stroke="black" stroke-opacity="0.4" stroke-width="3"/>
<path d="M79.3373 14.3768C79.1265 14.1129 78.7831 13.9549 78.417 13.9549H54.365L52.5438 8.41638C51.8298 6.23494 50.1333 6 49.4374 6H44.5824C43.9602 6 43.457 6.44489 43.457 6.99274C43.457 7.5406 43.9613 7.98549 44.5824 7.98549H49.4363C49.5904 7.98549 50.0585 7.98549 50.3781 8.95924L56.6418 29.265C56.7778 29.6929 57.2209 29.9888 57.7253 29.9888H73.0237C73.4985 29.9888 73.9224 29.7269 74.0822 29.332L79.4744 15.2826C79.5991 14.9787 79.5469 14.6398 79.3361 14.3758L79.3373 14.3768ZM72.2326 28.0043H58.5809L54.9985 15.9414H76.8179L72.2326 28.0043ZM70 32.0013C68.4349 32.0013 67.1668 33.12 67.1668 34.5006C67.1668 35.8813 68.4349 37 70 37C71.5651 37 72.8333 35.8813 72.8333 34.5006C72.8333 33.12 71.5651 32.0013 70 32.0013ZM59.8003 32.0013C58.2352 32.0013 56.9671 33.12 56.9671 34.5006C56.9671 35.8813 58.2352 37 59.8003 37C61.3654 37 62.6336 35.8813 62.6336 34.5006C62.6336 33.12 61.3654 32.0013 59.8003 32.0013Z" fill="#FFF9EF"/>
</g>
<defs>
<clipPath id="clip0_201_455">
<rect width="123" height="44" fill="white"/>
</clipPath>
</defs>
</svg>
